<svg width="200" height="118" viewBox="0 0 200 118" fill="none" xmlns="http://www.w3.org/2000/svg">
<path d="M196.409 117H3.59066C1.60946 117 0 116.328 0 115.5C0 114.672 1.60946 114 3.59066 114H196.409C198.391 114 200 114.672 200 115.5C200 116.328 198.391 117 196.409 117Z" fill="#2C3A64"/>
<path d="M128.302 59.9255C128.302 59.9255 126.322 59.5738 126.152 57.4963C125.983 55.4187 124.853 53.4071 123.413 52.9198C121.973 52.4325 118.023 54.1729 117.681 55.448C117.339 56.7231 116.976 59.1927 118.419 60.1381C119.111 60.5924 123.251 65.3301 126.833 64.0183C130.419 62.7102 128.302 59.9255 128.302 59.9255Z" fill="#FFB27D"/>
<path d="M169.927 73.3625C163.933 88.173 146.652 87.3375 142.026 85.4945C137.399 83.6478 121.728 67.8956 121.829 65.2941C121.929 62.6925 123.956 58.5703 128.147 58.5044C128.147 58.5044 143.437 69.211 145.863 67.2104C146.904 66.353 172.479 67.0602 169.927 73.3625Z" fill="#963333"/>
<path d="M112.183 107.764C111.19 110.018 112.231 112.644 114.512 113.629C116.793 114.613 119.447 113.584 120.444 111.329C121.437 109.075 120.396 106.449 118.115 105.464C115.833 104.476 113.176 105.509 112.183 107.764Z" fill="#1C468A"/>
<path d="M79.8639 107.527C78.8709 109.782 79.9119 112.408 82.1932 113.392C84.4746 114.376 87.1287 113.347 88.1254 111.093C89.1184 108.839 88.0774 106.213 85.7961 105.228C83.5148 104.244 80.8569 105.273 79.8639 107.527Z" fill="#1C468A"/>
<path d="M121.503 107.275L115.08 109.504C114.431 109.729 113.748 109.838 113.057 109.827L76.7077 109.199L72.7837 102.665L121.503 107.275Z" fill="#4A82D3"/>
<path d="M101.352 35.2725L91.3702 10.2417L91.3591 10.1929C91.3 9.96744 89.7533 4.59834 80.6133 3.33215L80.5727 3.32463L73.0569 1.86682C72.086 1.60757 69.2805 1.16046 67.9848 2.22376C67.4127 2.69718 67.1764 3.44111 67.2613 4.49689C67.4348 6.58968 74.0831 22.8247 78.5055 33.221L77.0621 33.8222C75.9252 31.1508 65.9508 7.63795 65.6998 4.62464C65.5669 3.0466 65.9988 1.83677 66.9845 1.02896C69.0997 -0.706886 73.02 0.254968 73.4371 0.360171L80.8496 1.79544C90.6947 3.16307 92.6659 9.07322 92.8615 9.74952L102.81 34.6976L101.352 35.2725Z" fill="#4A82D3"/>
<path d="M81.9201 27.7437L62.2742 31.482C62.2742 31.482 56.5376 33.7401 57.6045 43.6628C58.5421 52.3906 62.5842 101.358 62.5842 101.358C62.5842 101.358 63.4259 111.547 85.4454 108.752L81.9201 27.7437Z" fill="#4A82D3"/>
<path d="M70.9491 41.1269L75.8476 95.9664C76.047 98.1869 76.8296 100.227 78.0367 101.944C80.2774 105.13 83.9836 107.208 88.1586 107.264L106.354 107.505L106.804 107.512L118.2 107.662C119.348 107.677 120.455 107.542 121.504 107.275C121.751 107.212 121.991 107.144 122.231 107.069C126.184 105.803 129.241 102.65 130.393 98.7542C130.883 97.0973 131.027 95.3052 130.751 93.4641L122.851 40.9691C122.006 35.3709 117.432 31.0464 111.74 30.4678L108.528 30.141L107.764 30.0658L107.122 30.0019L96.3869 28.9086L95.069 28.7733L84.7108 27.7213C83.0829 27.556 81.5103 27.7063 80.0411 28.1121C79.9452 28.1384 79.8492 28.1647 79.7532 28.1985L79.1515 28.3976C74.0204 30.2424 70.4323 35.3183 70.9491 41.1269Z" fill="#739AF0"/>
<path d="M78.0403 101.948C80.2811 105.134 83.9873 107.212 88.1623 107.268L106.357 107.509L106.808 107.516L118.203 107.666C119.351 107.681 120.459 107.546 121.507 107.279C121.755 107.215 121.994 107.148 122.234 107.073C126.188 105.807 130.769 101.117 130.869 96.109C130.869 96.109 92.3816 95.335 84.3306 96.5073C80.174 97.1085 78.9115 99.9677 78.0403 101.948Z" fill="#6793E7"/>
<path d="M107.114 30.0015C107.195 30.0503 115.597 35.1939 116.675 39.6687C117.783 44.2675 125.033 97.8301 125.106 98.3712C125.11 98.4125 125.287 103.586 120.924 107.407L121.504 107.276C121.751 107.212 121.991 107.144 122.231 107.069C126.332 103.101 125.815 98.4876 125.789 98.2848C125.49 96.0718 118.458 44.1436 117.343 39.5147C116.365 35.4569 110.444 31.3766 108.524 30.1442L107.76 30.0691L107.114 30.0015Z" fill="#4A82D3"/>
<path d="M95.0616 28.7764C96.2724 29.5954 100.879 33.1122 101.824 39.5482C102.932 47.0964 107.085 101.891 107.125 102.444L107.129 102.485L107.14 102.522C107.147 102.549 107.775 105.509 105.896 107.505L106.354 107.512L106.804 107.52C108.602 105.382 107.915 102.733 107.808 102.361C107.679 100.666 103.604 46.9424 102.504 39.4581C101.688 33.9124 98.2621 30.4446 96.3795 28.9154L95.0616 28.7764Z" fill="#4A82D3"/>
<path d="M79.1441 28.3967C79.181 28.4193 80.9271 29.4074 82.4258 31.1132C83.9245 32.819 85.5488 35.4415 86.0877 39.1273C87.1952 46.6718 90.4104 101.279 90.4436 101.828V101.869L90.4584 101.907C90.4658 101.933 90.6024 105.277 88.7234 107.268L89.8715 107.283C91.3074 105.457 91.2447 102.14 91.1266 101.745C91.0232 99.998 87.867 46.5103 86.767 39.0259C85.7333 31.9849 81.0341 28.7274 80.0337 28.1074C79.9378 28.1337 79.8418 28.16 79.7458 28.1938L79.1441 28.3967Z" fill="#4A82D3"/>
<path d="M167.976 54.6639L159.962 60.0103L148.38 57.8116C148.542 56.8589 149.305 52.916 150 49.3432C150.043 49.1344 150.083 48.9218 150.122 48.7166C150.72 45.6789 151.235 43.0662 151.235 43.0662L162.05 38.2072L166.082 36.397C166.071 36.4593 165.769 39.7719 165.729 40.2519C164.977 48.8376 167.976 54.6639 167.976 54.6639Z" fill="#FFB27D"/>
<path d="M149.478 52.0439C149.701 51.9486 165.293 47.7496 166.784 48.2516C168.274 48.7536 169.156 51.6885 169.156 51.6885L146.713 56.8511C146.713 56.8511 146.612 53.2713 149.478 52.0439Z" fill="#963333"/>
<path d="M146.713 56.848C146.713 56.848 143.746 64.7409 141.802 74.803C140.888 79.5226 140.204 84.7222 140.15 89.8046C140.085 96.3527 139.019 106.796 138.022 117.052H188.108C186.182 90.4019 180.432 55.0562 169.153 51.685C165.621 50.6297 146.713 56.848 146.713 56.848Z" fill="#B64C41"/>
<path d="M138.177 116.444C139.016 102.75 140.049 100.328 140.153 89.8042C140.204 84.7218 169.642 76.1362 169.642 76.1362C169.642 76.1362 165.949 100.808 138.177 116.444Z" fill="#963333"/>
<path d="M115.734 78.8081C115.734 78.8081 113.754 78.4563 113.584 76.3784C113.415 74.3005 112.285 72.2886 110.845 71.8012C109.405 71.3138 105.455 73.0545 105.113 74.3298C104.771 75.6051 104.407 78.0752 105.851 79.0207C106.542 79.4751 110.683 84.2135 114.265 82.9016C117.851 81.5896 115.734 78.8081 115.734 78.8081Z" fill="#FFB27D"/>
<path d="M172.731 72.5307C173.088 76.6566 170.726 83.7836 157.359 92.2443C143.991 100.701 134.084 106.22 129.457 104.377C124.831 102.53 109.16 86.7773 109.26 84.1757C109.361 81.574 111.388 77.4518 115.579 77.3858C115.579 77.3858 130.869 88.0927 133.295 86.0921C134.332 85.2383 153.769 74.3078 155.749 69.6433C157.632 65.2132 172.375 68.4048 172.731 72.5307Z" fill="#B64C41"/>
<path d="M164.919 40.4095C162.543 44.5028 153.694 48.0463 150 49.3472C150.043 49.1383 150.083 48.9258 150.122 48.7205C150.72 45.6827 151.235 43.0699 151.235 43.0699L162.05 38.2109C164.444 38.1779 165.898 38.7239 164.919 40.4095Z" fill="#FCA56B"/>
<path d="M147.159 42.3997C147.159 42.3997 164.581 47.9327 167.799 36.8337C171.018 25.7347 175.432 18.9779 164.444 14.9765C153.456 10.9752 150.058 14.5588 148.099 17.9958C146.141 21.4366 142.71 40.6775 147.159 42.3997Z" fill="#FFB27D"/>
<path d="M148.783 16.9293C148.783 16.9293 149.896 29.8421 152.516 29.2815C155.141 28.7209 157.521 28.3068 157.135 32.1983C156.75 36.0897 153.114 40.5857 161.2 41.2746C169.286 41.9635 180.911 20.7401 178.69 16.7205C172.281 5.12675 139.52 2.7853 148.783 16.9293Z" fill="#163560"/>
<path d="M41.829 47.8442C41.3272 40.4068 39.68 35.9868 34 34.613C39.5996 33.6924 41.5402 28.4288 41.829 21.3818C41.9899 28.7277 43.798 33.9238 49 34.613C43.4525 36.435 42.2076 40.4068 41.829 47.8442Z" fill="#EE9849"/>
<path d="M55.2199 24.4351C54.8888 19.8579 53.7869 17.134 50 16.2925C53.7351 15.7234 55.0285 12.4887 55.2199 8.1499C55.3285 12.6736 56.5339 15.8693 60 16.2925C56.3011 17.4112 55.4682 19.8579 55.2199 24.4351Z" fill="#EE9849"/>
<path d="M64.9317 93.646L23.2094 93.8036C20.8945 93.8109 18.2952 95.9802 17.4095 98.6442L13.7302 109.868C12.8445 112.532 14.0002 114.687 16.3187 114.676L58.041 114.518C60.3559 114.511 62.9552 112.342 63.8408 109.678L67.5202 98.4537C68.4059 95.7897 67.2466 93.635 64.9317 93.646Z" fill="#963333"/>
<path d="M23.2094 93.646L64.9317 93.8036C67.2466 93.8109 69.8459 95.9802 70.7315 98.6442L74.4109 109.868C75.2965 112.532 74.1409 114.687 71.8224 114.676L30.1001 114.518C27.7852 114.511 25.1859 112.342 24.3002 109.678L20.6209 98.4537C19.7352 95.7897 20.8909 93.635 23.2094 93.646Z" fill="#B64C41"/>
<path d="M35.81 101.674C36.1844 101.835 36.5156 102.062 36.8072 102.359C37.0952 102.656 37.3221 103.008 37.4913 103.411C37.6569 103.81 37.7145 104.162 37.6713 104.459C37.6281 104.76 37.4841 104.987 37.2393 105.144C36.9944 105.302 36.6632 105.383 36.2456 105.383H35.2916L35.9108 106.889H34.8163L32.5734 101.432H34.6255C35.0395 101.432 35.4356 101.513 35.81 101.674ZM36.4112 104.111C36.5156 103.946 36.5048 103.715 36.3824 103.415C36.2564 103.107 36.0728 102.872 35.8352 102.707C35.5976 102.542 35.3132 102.462 34.9819 102.462H34.0891L34.8667 104.356H35.7596C36.0872 104.356 36.3068 104.272 36.4112 104.111Z" fill="#FFB27D"/>
<path d="M37.4553 101.432H38.5497L40.7926 106.889H39.6982L37.4553 101.432Z" fill="#FFB27D"/>
<path d="M42.7655 106.621C42.2759 106.379 41.8331 106.046 41.4334 105.617C41.0338 105.189 40.7242 104.705 40.501 104.162C40.2778 103.62 40.1914 103.136 40.2382 102.708C40.285 102.279 40.4542 101.945 40.7458 101.704C41.0374 101.462 41.4262 101.341 41.9123 101.341C42.3227 101.341 42.7295 101.425 43.1291 101.59C43.5287 101.755 43.9068 101.997 44.2596 102.308L43.8635 103.056C43.3667 102.631 42.8843 102.418 42.4091 102.418C42.1175 102.418 41.8835 102.491 41.7142 102.642C41.545 102.788 41.4514 102.997 41.4298 103.261C41.4118 103.525 41.4694 103.829 41.6098 104.166C41.7502 104.503 41.9375 104.804 42.1751 105.071C42.4127 105.335 42.6755 105.544 42.9671 105.691C43.2587 105.837 43.5503 105.914 43.8419 105.914C44.3172 105.914 44.6232 105.698 44.7672 105.265L45.7788 106.013C45.6816 106.332 45.5016 106.574 45.2388 106.739C44.9724 106.904 44.634 106.988 44.2236 106.988C43.7411 106.984 43.2551 106.863 42.7655 106.621Z" fill="#FFB27D"/>
<path d="M47.7229 104.745L47.3989 105.507L47.9677 106.889H46.8769L44.634 101.432H45.7248L46.7725 103.983L47.8237 101.432H49.0406L48.0757 103.865L51.3951 106.889H50.117L47.7229 104.745Z" fill="#FFB27D"/>
<path d="M50.3294 104.207H52.2447L52.6443 105.182H50.7291L50.3294 104.207Z" fill="#FFB27D"/>
<path d="M54.5524 106.336C53.998 105.903 53.5552 105.288 53.2276 104.489L51.9711 101.432H53.0692L54.304 104.441C54.7072 105.419 55.2581 105.907 55.9637 105.907C56.3057 105.907 56.5181 105.79 56.6045 105.551C56.6873 105.313 56.6261 104.943 56.4173 104.441L55.1825 101.432H56.2661L57.5226 104.489C57.8502 105.288 57.915 105.903 57.717 106.336C57.519 106.768 57.0797 106.984 56.4029 106.984C55.7261 106.984 55.1068 106.768 54.5524 106.336Z" fill="#FFB27D"/>
<path d="M60.5899 101.674C60.9643 101.835 61.2955 102.062 61.5871 102.359C61.8751 102.656 62.1019 103.008 62.2711 103.411C62.4367 103.81 62.4944 104.162 62.4511 104.459C62.4079 104.76 62.2639 104.987 62.0191 105.144C61.7743 105.302 61.4431 105.383 61.0255 105.383H60.0714L60.6907 106.889H59.5962L57.3533 101.432H59.4054C59.8158 101.432 60.2119 101.513 60.5899 101.674ZM61.1875 104.111C61.2919 103.946 61.2811 103.715 61.1587 103.415C61.0327 103.107 60.8491 102.872 60.6115 102.707C60.3739 102.542 60.0895 102.462 59.7582 102.462H58.8654L59.643 104.356H60.5359C60.8671 104.356 61.0831 104.272 61.1875 104.111Z" fill="#FFB27D"/>
</svg>
