<svg width="202" height="119" viewBox="0 0 202 119" fill="none" xmlns="http://www.w3.org/2000/svg">
<path d="M97.5605 33.748C104.545 33.748 110.207 27.9854 110.207 20.8767C110.207 13.7681 104.545 8.00537 97.5605 8.00537C90.576 8.00537 84.9141 13.7681 84.9141 20.8767C84.9141 27.9854 90.576 33.748 97.5605 33.748Z" fill="#EE9849"/>
<path d="M97.5605 1V5.42969" stroke="#EE9849" stroke-width="2" stroke-miterlimit="10" stroke-linecap="round"/>
<path d="M87.6669 3.58545L89.8411 7.42334" stroke="#EE9849" stroke-width="2" stroke-miterlimit="10" stroke-linecap="round"/>
<path d="M80.3716 10.8613L84.1378 13.0786" stroke="#EE9849" stroke-width="2" stroke-miterlimit="10" stroke-linecap="round"/>
<path d="M77.626 20.876H81.978" stroke="#EE9849" stroke-width="2" stroke-miterlimit="10" stroke-linecap="round"/>
<path d="M80.1667 30.9458L83.9366 28.7329" stroke="#EE9849" stroke-width="2" stroke-miterlimit="10" stroke-linecap="round"/>
<path d="M87.3147 38.3716L89.4925 34.5386" stroke="#EE9849" stroke-width="2" stroke-miterlimit="10" stroke-linecap="round"/>
<path d="M97.1544 41.1655V36.7368" stroke="#EE9849" stroke-width="2" stroke-miterlimit="10" stroke-linecap="round"/>
<path d="M107.048 38.5762L104.874 34.7432" stroke="#EE9849" stroke-width="2" stroke-miterlimit="10" stroke-linecap="round"/>
<path d="M114.343 31.3008L110.577 29.0879" stroke="#EE9849" stroke-width="2" stroke-miterlimit="10" stroke-linecap="round"/>
<path d="M117.089 21.2896H112.737" stroke="#EE9849" stroke-width="2" stroke-miterlimit="10" stroke-linecap="round"/>
<path d="M114.545 11.2197L110.778 13.4326" stroke="#EE9849" stroke-width="2" stroke-miterlimit="10" stroke-linecap="round"/>
<path d="M107.397 3.79492L105.222 7.62793" stroke="#EE9849" stroke-width="2" stroke-miterlimit="10" stroke-linecap="round"/>
<path d="M112.931 51.6011C98.2073 51.6011 92.9066 40.211 97.9126 27.0251C102.919 13.8391 121.772 9.66199 129.038 19.0367C136.301 28.4113 142.547 28.3638 147.56 26.63C153.31 24.6402 155.833 18.6563 164.832 19.9218C175.232 21.3849 173.838 30.2548 181.503 28.7112C196.281 25.7339 207.231 42.7495 197.014 51.5096C197.014 51.506 127.651 51.6011 112.931 51.6011Z" fill="#E9F3FE"/>
<path d="M99.2136 53.7833C99.8209 53.6151 122.523 44.7451 123.094 44.1123C123.665 43.4795 94.0458 39.9351 90.6353 40.2314C86.0677 40.6301 79.0886 42.5138 78.7113 44.0318C78.3375 45.5498 97.9917 54.1198 99.2136 53.7833Z" fill="#4A82D3"/>
<path d="M52.1139 67.866C52.7212 67.6978 66.9597 62.522 67.5311 61.8892C68.1025 61.2564 47.345 53.2641 43.9417 53.6445C40.2545 54.0615 35.3634 55.4076 34.9897 56.9255C34.6159 58.4472 50.892 68.2025 52.1139 67.866Z" fill="#4A82D3"/>
<path d="M39.5142 73.7655C39.6795 69.625 140.578 31.0986 146.371 30.5938C152.16 30.0891 170.514 31.9545 166.039 39.7783C161.565 47.6021 84.6769 74.2227 69.7125 76.8416C54.7409 79.4532 39.4315 75.8285 39.5142 73.7655Z" fill="#739AF0"/>
<path d="M145.821 34.5548C145.965 34.3903 148.502 34.1269 150.46 34.5914C153.059 35.2095 155.359 36.3616 154.349 37.0931C153.339 37.8246 148.315 39.5254 147.812 39.518C147 39.5034 145.275 35.173 145.821 34.5548Z" fill="#2C3A64"/>
<path d="M139.482 41.2959C140.275 41.2959 140.919 40.6409 140.919 39.833C140.919 39.0251 140.275 38.3701 139.482 38.3701C138.688 38.3701 138.044 39.0251 138.044 39.833C138.044 40.6409 138.688 41.2959 139.482 41.2959Z" fill="#2C3A64"/>
<path d="M132.851 43.8677C133.645 43.8677 134.289 43.2125 134.289 42.4043C134.289 41.5961 133.645 40.9409 132.851 40.9409C132.057 40.9409 131.414 41.5961 131.414 42.4043C131.414 43.2125 132.057 43.8677 132.851 43.8677Z" fill="#2C3A64"/>
<path d="M126.221 46.439C127.015 46.439 127.658 45.7838 127.658 44.9756C127.658 44.1674 127.015 43.5122 126.221 43.5122C125.427 43.5122 124.783 44.1674 124.783 44.9756C124.783 45.7838 125.427 46.439 126.221 46.439Z" fill="#2C3A64"/>
<path d="M119.587 49.0103C120.381 49.0103 121.024 48.3551 121.024 47.5469C121.024 46.7387 120.381 46.0835 119.587 46.0835C118.793 46.0835 118.149 46.7387 118.149 47.5469C118.149 48.3551 118.793 49.0103 119.587 49.0103Z" fill="#2C3A64"/>
<path d="M112.956 51.5815C113.75 51.5815 114.394 50.9265 114.394 50.1184C114.394 49.3103 113.75 48.6553 112.956 48.6553C112.162 48.6553 111.519 49.3103 111.519 50.1184C111.519 50.9265 112.162 51.5815 112.956 51.5815Z" fill="#2C3A64"/>
<path d="M106.326 54.1528C107.12 54.1528 107.763 53.4978 107.763 52.6897C107.763 51.8816 107.12 51.2266 106.326 51.2266C105.532 51.2266 104.888 51.8816 104.888 52.6897C104.888 53.4978 105.532 54.1528 106.326 54.1528Z" fill="#2C3A64"/>
<path d="M99.6952 56.7241C100.489 56.7241 101.133 56.0692 101.133 55.2612C101.133 54.4533 100.489 53.7983 99.6952 53.7983C98.9013 53.7983 98.2577 54.4533 98.2577 55.2612C98.2577 56.0692 98.9013 56.7241 99.6952 56.7241Z" fill="#2C3A64"/>
<path d="M93.0647 59.2959C93.8586 59.2959 94.5022 58.6408 94.5022 57.8328C94.5022 57.0247 93.8586 56.3696 93.0647 56.3696C92.2708 56.3696 91.6272 57.0247 91.6272 57.8328C91.6272 58.6408 92.2708 59.2959 93.0647 59.2959Z" fill="#2C3A64"/>
<path d="M86.4342 61.8677C87.2281 61.8677 87.8717 61.2125 87.8717 60.4043C87.8717 59.5961 87.2281 58.9409 86.4342 58.9409C85.6403 58.9409 84.9967 59.5961 84.9967 60.4043C84.9967 61.2125 85.6403 61.8677 86.4342 61.8677Z" fill="#2C3A64"/>
<path d="M79.8002 64.439C80.5941 64.439 81.2377 63.7838 81.2377 62.9756C81.2377 62.1674 80.5941 61.5122 79.8002 61.5122C79.0063 61.5122 78.3627 62.1674 78.3627 62.9756C78.3627 63.7838 79.0063 64.439 79.8002 64.439Z" fill="#2C3A64"/>
<path d="M73.1697 67.0103C73.9636 67.0103 74.6072 66.3551 74.6072 65.5469C74.6072 64.7387 73.9636 64.0835 73.1697 64.0835C72.3758 64.0835 71.7322 64.7387 71.7322 65.5469C71.7322 66.3551 72.3758 67.0103 73.1697 67.0103Z" fill="#2C3A64"/>
<path d="M66.5392 69.5811C67.3332 69.5811 67.9767 68.9261 67.9767 68.1182C67.9767 67.3102 67.3332 66.6553 66.5392 66.6553C65.7453 66.6553 65.1017 67.3102 65.1017 68.1182C65.1017 68.9261 65.7453 69.5811 66.5392 69.5811Z" fill="#2C3A64"/>
<path opacity="0.5" d="M63.0713 77.6138L166.726 37.623C166.765 36.7524 166.474 35.9733 165.935 35.2856L56.0024 77.6979C58.2557 77.7857 60.6347 77.7674 63.0713 77.6138Z" fill="#4A82D3"/>
<path d="M99.1813 60.4843C99.7778 60.1807 123.798 50.9376 124.686 51.029C125.574 51.1204 104.669 75.1007 101.772 77.3026C97.8947 80.2544 91.0918 83.7622 89.7477 82.8331C88.4072 81.9077 97.9846 61.0915 99.1813 60.4843Z" fill="#4A82D3"/>
<path d="M19 68.0791L33.5 61.9717" stroke="#B6CDFF" stroke-miterlimit="10" stroke-linecap="round" stroke-linejoin="round"/>
<path d="M10 72.1499L15.5 69.606" stroke="#B6CDFF" stroke-miterlimit="10" stroke-linecap="round" stroke-linejoin="round"/>
<path d="M4 84.2759L18.9608 77.7485" stroke="#B6CDFF" stroke-miterlimit="10" stroke-linecap="round" stroke-linejoin="round"/>
<path d="M19 59.0308L40.0159 50.2676" stroke="#B6CDFF" stroke-miterlimit="10" stroke-linecap="round" stroke-linejoin="round"/>
<path d="M150 65.3999L190.321 48.2319" stroke="#B6CDFF" stroke-miterlimit="10" stroke-linecap="round" stroke-linejoin="round"/>
<path d="M138 78.1592L155.277 70.6235" stroke="#B6CDFF" stroke-miterlimit="10" stroke-linecap="round" stroke-linejoin="round"/>
<path d="M138 63.4492L162.276 53.3213" stroke="#B6CDFF" stroke-miterlimit="10" stroke-linecap="round" stroke-linejoin="round"/>
<path d="M149.555 117.906C149.555 117.906 169 102.167 147.276 88.5887C138.82 83.3032 127.274 92.6854 118.699 78.5042C113.707 70.2486 96.2451 67.7431 87.5123 79.0126C78.7795 90.2822 71.2722 90.2237 65.2455 88.1424C58.3347 85.7503 55.298 78.5554 44.4844 80.0771C31.9781 81.8364 33.6528 92.4988 24.4384 90.6407C6.67452 87.0597 -6.48939 107.514 5.79045 118.048L149.555 117.906Z" fill="#E9F3FE"/>
</svg>
