<svg width="107" height="150" viewBox="0 0 107 150" fill="none" xmlns="http://www.w3.org/2000/svg">
<path d="M79.0672 145.157C79.0672 147.829 63.507 150 44.3131 150C25.1193 150 9.55908 147.829 9.55908 145.157C9.55908 142.485 25.1193 140.313 44.3131 140.313C63.507 140.313 79.0672 142.485 79.0672 145.157Z" fill="#A6A6A6"/>
<path d="M16.4338 145.157C20.5359 147.238 53.8466 153.404 68.5965 145.118C76.3576 140.763 68.8497 132.888 59.9998 126.414C42.6797 125.335 22.4477 126.272 0 131.141C6.11519 136.819 14.0282 143.936 16.4338 145.157Z" fill="#BFBFBF"/>
<path d="M106.782 82.1221C106.44 66.5392 85.0303 63.3533 85.0303 63.3533C57.4803 57.7522 47.377 115.716 75.8386 117.283C104.288 118.863 107.124 97.7051 106.782 82.1221ZM77.8137 109.614C57.417 108.483 64.659 66.9375 84.3973 70.9585C84.3973 70.9585 99.7423 73.2323 99.9828 84.4088C100.236 95.5725 98.2103 110.744 77.8137 109.614Z" fill="#615348"/>
<path d="M83.8528 109.405C82.0423 109.649 80.0419 109.726 77.8136 109.597C57.4169 108.467 64.659 66.921 84.3972 70.942C84.3972 70.942 86.347 71.2375 88.8665 72.1111L89.892 64.5187C87.0687 63.6452 85.0303 63.3369 85.0303 63.3369C79.8267 62.2834 75.2434 63.491 71.4325 66.1631L59.0122 98.3181C60.0251 108.326 65.2667 116.689 75.8385 117.28C78.358 117.421 80.6749 117.37 82.8146 117.177L83.8528 109.405Z" fill="#DEDEDE"/>
<path d="M1.11407 50.8757L15.3702 137.757C15.4715 138.348 15.7627 138.9 16.1931 139.299C17.2946 140.314 19.447 142.42 20.3712 144.039C20.7257 144.656 21.3461 145.067 22.0298 145.234C25.7015 146.069 36.6784 148.368 46.8324 148.368C59.3793 148.368 68.8623 145.195 68.9889 144.938C70.1284 142.665 72.42 140.365 73.5468 139.312C73.99 138.9 74.2685 138.361 74.3698 137.77L88.6386 50.8115C88.8538 49.4754 88.0815 48.1908 86.8154 47.7925C77.9781 45.0305 43.5912 36.0122 2.97522 47.8439C1.69647 48.2165 0.898836 49.5268 1.11407 50.8757Z" fill="#615348"/>
<path d="M1.11426 50.0792C1.11426 50.0792 43.5281 60.8061 88.6641 50.0792C88.5628 49.0258 87.8664 48.1137 86.8282 47.7925C77.991 45.0305 43.6041 36.0122 2.98807 47.8439C1.96254 48.1394 1.25353 49.0386 1.11426 50.0792Z" fill="#A1A1A1"/>
<path d="M67.4065 140.661C65.5326 142.909 31.7408 143.089 27.4615 140.661C23.1947 138.233 22.3465 55.7961 16.5351 56.4898C12.8255 56.9266 8.57145 55.8217 5.97598 54.961C4.88714 54.6013 3.82363 55.552 4.02621 56.6953C6.03928 68.2958 14.1296 114.967 16.3705 127.673C17.6366 134.88 17.6873 138.387 17.3834 140.455C18.4596 141.534 19.7257 142.909 20.3714 144.039C20.7259 144.656 21.3463 145.067 22.0299 145.234C25.7016 146.069 36.6786 148.369 46.8326 148.369C57.9615 148.369 66.6595 145.876 68.5839 145.131C69.5335 142.138 68.4446 139.414 67.4065 140.661Z" fill="#DEDEDE"/>
<path d="M74.2686 63.0546C74.3572 62.2196 74.9776 61.5644 75.7879 61.436C77.6363 61.1533 80.2192 58.0445 81.2827 59.0979C82.8146 60.6138 71.3945 132.336 70.7868 133.441C70.1791 134.533 67.7609 137.757 67.3304 135.625C66.9379 133.647 73.205 73.2163 74.2686 63.0546Z" fill="#1A1A1A"/>
<path d="M33.7919 61.1147C33.7919 61.1147 20.8146 60.6137 19.5611 58.5968C18.3077 56.5799 27.9046 132.156 28.9935 133.261C30.0823 134.366 34.6909 137.603 36.0076 135.445C37.3243 133.3 33.7919 61.1147 33.7919 61.1147Z" fill="#0D0D0D"/>
<path d="M39.0968 80.1017L51.2385 103.688C51.6816 104.536 52.2134 105.32 52.7831 106.09C62.6839 119.566 48.8203 118.757 43.009 115.905C34.3996 111.691 26.3726 102.545 28.1198 82.6196C29.3099 68.9508 36.0835 70.7108 39.0968 80.1017Z" fill="#4A4A4A"/>
<path d="M40.7174 79.9992L52.606 102.648C58.7338 119.246 64.4059 106.72 65.3175 100.027C66.6089 90.6105 64.216 78.8173 48.238 71.6618C35.767 66.0864 38.1346 75.0661 40.7174 79.9992Z" fill="#4A4A4A"/>
<path d="M38.6788 72.7153C38.4762 74.8736 39.5777 77.8283 40.7172 79.9993L52.6057 102.648C54.872 108.789 57.075 110.947 58.9994 110.883C57.2269 111.563 38.6788 72.7153 38.6788 72.7153Z" fill="#DEDEDE"/>
<path d="M59.0123 110.882C59.1769 110.882 59.3415 110.856 59.5061 110.818C59.4048 110.767 59.2529 110.779 59.0123 110.882Z" fill="#DEDEDE"/>
<path d="M51.2259 103.688L39.0842 80.1015C37.7168 75.8364 35.5771 73.1644 33.5387 72.7661C33.5387 72.7661 55.1128 112.154 56.0244 114.068C56.075 114.171 56.1383 114.248 56.189 114.338C56.4548 112.539 55.5433 109.88 52.7705 106.09C52.2135 105.319 51.669 104.536 51.2259 103.688Z" fill="#DEDEDE"/>
<path d="M29.7783 77.9697C29.7783 77.9697 25.5116 103.432 39.5905 112.604C39.5905 112.604 28.5502 106.823 29.7783 77.9697Z" fill="#1C1C1C"/>
<path d="M44.1991 71.8413C44.1991 71.8413 64.6844 76.2348 64.2286 97.3546C64.2286 97.3675 64.7983 79.9218 44.1991 71.8413Z" fill="#1C1C1C"/>
<path d="M44.1992 46.6236C44.1992 46.6236 36.1722 46.7906 42.0595 40.9069C47.9468 35.0231 53.9227 29.1266 44.1992 25.324C34.4756 21.5085 24.3849 12.5031 34.3743 7.48007C44.3637 2.45706 49.3141 -0.317801 53.0744 0.0290564C53.0744 0.0290564 45.6172 2.1102 48.833 7.48007C52.0489 12.8499 69.9767 14.8926 67.4065 23.3071C64.849 31.7216 44.1992 38.299 44.1992 42.4613C44.1992 46.6236 46.4148 45.9299 46.4148 45.9299L44.1992 46.6236Z" fill="#DEDEDE"/>
<path d="M24.7394 10.7686C24.7394 10.7686 13.6484 14.751 24.7394 21.1614C24.7394 21.1614 19.4471 15.4447 24.7394 10.7686Z" fill="#DEDEDE"/>
<path d="M65.5707 33.893C65.5707 33.893 73.0912 34.728 71.7998 25.6455C71.8125 25.6455 70.8249 32.0816 65.5707 33.893Z" fill="#DEDEDE"/>
<path d="M67.6597 36.1411C67.6597 36.1411 75.1802 36.9761 73.8888 27.8936C73.8888 27.8936 72.9139 34.3297 67.6597 36.1411Z" fill="#DEDEDE"/>
<path d="M46.0602 45.9682C45.2245 46.0325 43.0722 45.9168 42.0593 43.3218C40.7679 40.0716 57.8474 28.9465 52.1374 21.1486C46.4273 13.3507 33.2727 13.8775 34.3742 10.7557C35.4757 7.63402 51.3144 0.0673828 51.3271 0.0673828L50.656 0.170155C47.149 0.863871 42.3758 3.43319 34.3742 7.45417C24.3848 12.4772 34.4628 21.4826 44.199 25.2981C53.9226 29.1135 47.9593 34.9972 42.0593 40.881C36.172 46.7647 44.199 46.5977 44.199 46.5977L46.4147 45.904C46.4147 45.9297 46.2754 45.9682 46.0602 45.9682Z" fill="#DBDBDB"/>
<path d="M53.3149 12.3232C53.3149 12.3232 69.293 16.6525 63.1524 24.1036C63.1398 24.1036 64.811 18.2198 53.3149 12.3232Z" fill="white"/>
<path d="M85.005 50.9016L72.2175 140.635C72.7366 140.095 73.2051 139.633 73.5596 139.299C74.0027 138.888 74.2812 138.348 74.3825 137.757L88.6513 50.7988L85.005 50.9016Z" fill="#DEDEDE"/>
</svg>
