<svg width="96" height="150" viewBox="0 0 96 150" fill="none" xmlns="http://www.w3.org/2000/svg">
<path d="M89.8786 55.9091C83.7041 51.8399 68.6498 55.9091 68.6498 55.9091V114.23C68.6498 114.23 84.8605 116.946 91.7988 114.23C98.7478 111.514 96.0531 59.9782 89.8786 55.9091ZM87.4491 110.118C82.3037 112.455 70.2836 110.118 70.2836 110.118V59.935C70.2836 59.935 81.4444 56.4286 86.0169 59.935C90.6 63.4305 92.6051 107.78 87.4491 110.118Z" fill="#DCE2E1"/>
<path d="M77.7311 111.048C73.7421 110.789 70.2942 110.118 70.2942 110.118V59.9352C70.2942 59.9352 73.827 58.8313 77.7311 58.485V54.3076C72.8616 54.7838 68.6604 55.9093 68.6604 55.9093V114.23C68.6604 114.23 72.7661 114.923 77.7311 115.258V111.048Z" fill="#E3E3E3"/>
<path d="M74.0605 58.2035V130.95C74.0605 131.751 73.721 132.52 73.1375 133.05L63.4514 141.87C62.8679 142.4 62.5284 143.169 62.5284 143.97C62.5284 145.528 61.2872 146.794 59.7595 146.794L56.9163 147.595C45.6388 150.788 33.7248 150.788 22.458 147.595L19.6148 146.794C18.0871 146.794 16.8458 145.528 16.8458 143.97C16.8458 143.169 16.5063 142.4 15.9228 141.87L6.23677 133.05C5.65327 132.52 5.31378 131.751 5.31378 130.95V58.2035C5.31378 56.6451 6.55504 55.3789 8.08275 55.3789H71.2915C72.8298 55.3789 74.0605 56.6451 74.0605 58.2035Z" fill="#615348"/>
<path d="M15.9334 141.88C16.5169 142.411 16.8564 143.179 16.8564 143.98C16.8564 145.538 18.0977 146.804 19.6254 146.804L22.4686 147.605C33.7461 150.798 45.66 150.798 56.9268 147.605L59.7701 146.804C61.2978 146.804 62.539 145.538 62.539 143.98C62.539 143.179 62.8785 142.411 63.462 141.88C35.4435 150.203 15.9334 141.88 15.9334 141.88Z" fill="#C4C4C4"/>
<path d="M15.0105 141.048C4.6348 129.587 9.62106 58.3772 9.62106 58.3772L5.67449 56.8296C5.4517 57.2408 5.31378 57.6954 5.31378 58.204V130.951C5.31378 131.752 5.65327 132.52 6.23677 133.05L15.0105 141.048Z" fill="#E3E3E3"/>
<path d="M15.9335 141.881C16.4003 142.303 16.6973 142.866 16.8034 143.483C17.3657 143.245 17.1429 142.736 15.9335 141.881Z" fill="#E3E3E3"/>
<path d="M64.6078 141.048C74.9835 129.587 69.9972 58.3767 69.9972 58.3767L73.9438 56.8291C74.1666 57.2403 74.3045 57.6949 74.3045 58.2035V130.95C74.3045 131.751 73.965 132.52 73.3815 133.05L64.6078 141.048Z" fill="#E3E3E3"/>
<path d="M63.6954 141.881C63.2286 142.303 62.9316 142.866 62.8255 143.483C62.2632 143.245 62.4754 142.736 63.6954 141.881Z" fill="#E3E3E3"/>
<path d="M65.3186 60.1297L65.552 60.0648C67.1328 59.6103 68.6499 61.0713 68.6499 63.0734C68.6287 77.3911 68.4271 126.253 66.8782 129.262C65.064 132.79 59.3245 137.444 56.3752 135.961C53.4259 134.478 56.4919 126.351 57.2027 98.9382C57.6907 80.2049 62.5391 70.4216 62.3799 64.859C62.3269 62.6188 63.5575 60.6492 65.3186 60.1297Z" fill="#292929"/>
<path d="M16.0819 61.9478L17.1322 62.24C18.4265 62.5971 19.3177 63.7984 19.3177 65.162V127.303C19.3177 129.846 16.432 131.253 14.4906 129.662C13.801 129.1 13.3978 128.255 13.3872 127.357L12.3369 64.9239C12.2945 62.9001 14.1723 61.4175 16.0819 61.9478Z" fill="#1C1C1C"/>
<path d="M5.32438 54.6543C5.32438 54.6543 4.63479 81.9803 10.3531 85.0971C16.0714 88.2139 14.5437 61.364 17.5991 61.4614C20.6545 61.5588 20.0816 72.0239 24.6541 70.0002C29.2266 67.9764 29.2266 55.9205 31.5181 61.4614C33.8097 67.0024 31.9213 113.884 41.3527 113.105C50.7842 112.326 51.5481 112.845 52.3119 101.298C53.0758 89.7615 51.93 86.0603 57.2663 87.0343C62.6027 88.0083 58.6031 71.6668 62.6027 65.2492C66.6023 58.8316 68.0451 53.3881 71.0475 56.494C74.0499 59.6108 76.7127 56.4616 76.7127 53.3664C76.7127 50.2821 33.2793 39.3841 5.32438 54.6543Z" fill="#F6EDD3"/>
<path d="M35.6139 45.8333C40.8336 45.563 44.8501 41.0275 44.5851 35.703C44.3202 30.3785 39.874 26.2813 34.6544 26.5516C29.4347 26.8219 25.4182 31.3574 25.6832 36.6819C25.9482 42.0064 30.3943 46.1036 35.6139 45.8333Z" fill="#4A4A4A"/>
<path d="M41.9044 36.1912C41.9044 40.0006 38.8702 43.0958 35.1358 43.0958C31.4014 43.0958 28.3672 40.0006 28.3672 36.1912C28.3672 32.3818 31.4014 29.2866 35.1358 29.2866C38.8808 29.2866 41.9044 32.3818 41.9044 36.1912Z" fill="#A3A3A3"/>
<path d="M36.2286 39.0162C36.2286 39.0162 43.5488 18.4648 46.286 17.6207C49.0231 16.7766 77.4342 23.6595 82.3886 25.4885C84.5423 26.2785 73.6361 51.2561 71.6735 49.5246C70.3685 48.3991 45.8722 58.4421 36.2286 39.0162Z" fill="#9C7233"/>
<path d="M41.7665 30.1206C42.159 29.3089 42.9972 28.8544 43.8671 28.9626C45.9677 29.244 49.6172 29.7851 49.7976 30.153C50.0522 30.6833 46.4875 38.8216 46.1056 38.8757C45.7237 38.9298 39.1991 37.4147 39.0612 36.6247C38.9763 36.0619 40.7693 32.2092 41.7665 30.1206Z" stroke="#D9D9D9" stroke-width="0.5" stroke-miterlimit="10"/>
<path d="M49.7976 30.1645C49.6173 29.7857 45.9677 29.2446 43.8671 28.974C42.9866 28.855 42.1485 29.3203 41.7666 30.132C41.5968 30.4891 41.3952 30.9112 41.1937 31.3549C41.2043 31.3441 42.7956 29.3636 44.5567 29.7965C46.3284 30.2294 48.7791 30.1645 48.3548 31.2791C47.941 32.3938 45.3736 38.595 45.3736 38.595L45.5328 38.8114C45.8298 38.8655 46.042 38.898 46.1057 38.8872C46.4876 38.8222 50.0522 30.6947 49.7976 30.1645Z" fill="#F2C777"/>
<path d="M40.4403 36.5276C40.4085 36.5384 40.3661 36.5384 40.3342 36.5168C40.26 36.4843 40.2282 36.3977 40.2706 36.322L43.0926 30.2724C43.1244 30.2074 43.1881 30.175 43.2517 30.1966L46.7421 30.8784C46.8164 30.8892 46.8694 30.965 46.8588 31.0516C46.8482 31.1273 46.7739 31.1814 46.6891 31.1706L43.3048 30.5105L40.5252 36.4627C40.5146 36.4843 40.4828 36.5168 40.4403 36.5276Z" stroke="#D9D9D9" stroke-width="0.5" stroke-miterlimit="10"/>
<path d="M50.763 32.2202C51.1555 31.4085 51.9936 30.954 52.8636 31.0622C54.9642 31.3436 58.6137 31.8847 58.794 32.2526C59.0487 32.7829 55.484 40.9212 55.1021 40.9753C54.7202 41.0294 48.1956 39.5143 48.0577 38.7243C47.9622 38.1724 49.7551 34.3197 50.763 32.2202Z" stroke="#D9D9D9" stroke-width="0.5" stroke-miterlimit="10"/>
<path d="M58.7941 32.2636C58.6137 31.8848 54.9642 31.3437 52.8636 31.0731C51.9831 30.9541 51.145 31.4194 50.763 32.2311C50.5933 32.5882 50.3917 33.0103 50.1902 33.454C50.2008 33.4432 51.7921 31.4627 53.5532 31.8956C55.3249 32.3285 57.7756 32.2636 57.3513 33.3783C56.9375 34.493 54.3701 40.6941 54.3701 40.6941L54.5293 40.9105C54.8263 40.9646 55.0385 40.9971 55.1021 40.9863C55.4841 40.9322 59.0487 32.7939 58.7941 32.2636Z" fill="#F2C777"/>
<path d="M49.4369 38.6267C49.405 38.6376 49.3626 38.6376 49.3308 38.6159C49.2565 38.5834 49.2247 38.4969 49.2671 38.4211L52.0891 32.3715C52.121 32.3066 52.1846 32.2741 52.2483 32.2957L55.7386 32.9775C55.8129 32.9884 55.866 33.0641 55.8553 33.1507C55.8447 33.2264 55.7705 33.2806 55.6856 33.2697L52.3013 32.6096L49.5217 38.5618C49.5005 38.5943 49.4687 38.6159 49.4369 38.6267Z" stroke="#D9D9D9" stroke-width="0.5" stroke-miterlimit="10"/>
<path d="M55.0172 22.3828C55.4098 21.5711 56.2479 21.1166 57.1178 21.2248C59.2184 21.5062 62.8679 22.0473 63.0483 22.4152C63.3029 22.9455 59.7383 31.0838 59.3563 31.1379C58.9744 31.192 52.4498 29.6769 52.3119 28.8869C52.2164 28.3242 54.0094 24.4714 55.0172 22.3828Z" stroke="#D9D9D9" stroke-width="0.5" stroke-miterlimit="10"/>
<path d="M63.0483 22.4154C62.8679 22.0367 59.2184 21.4955 57.1178 21.225C56.2372 21.1059 55.3991 21.5713 55.0172 22.383C54.8475 22.7401 54.6459 23.1622 54.4443 23.6059C54.4549 23.5951 56.0463 21.6146 57.8074 22.0475C59.5791 22.4804 62.0298 22.4154 61.6054 23.5301C61.1917 24.6448 58.6243 30.8459 58.6243 30.8459L58.7834 31.0624C59.0805 31.1165 59.2926 31.149 59.3563 31.1381C59.7382 31.084 63.3029 22.9457 63.0483 22.4154Z" fill="#F2C777"/>
<path d="M53.6911 28.7898C53.6592 28.8006 53.6168 28.8006 53.585 28.779C53.5107 28.7465 53.4789 28.6599 53.5213 28.5842L56.3433 22.5346C56.3752 22.4696 56.4388 22.4372 56.5025 22.4588L59.9929 23.1406C60.0671 23.1514 60.1202 23.2272 60.1096 23.3138C60.0989 23.3895 60.0247 23.4436 59.9398 23.4328L56.5555 22.7727L53.7759 28.7249C53.7547 28.7465 53.7229 28.779 53.6911 28.7898Z" stroke="#D9D9D9" stroke-width="0.5" stroke-miterlimit="10"/>
<path d="M59.7488 34.3305C60.1414 33.5188 60.9795 33.0643 61.8494 33.1725C63.95 33.4539 67.5995 33.995 67.7799 34.363C68.0345 34.8933 64.4699 43.0316 64.0879 43.0857C63.706 43.1398 57.1814 41.6247 57.0435 40.8347C56.948 40.2719 58.7516 36.4192 59.7488 34.3305Z" stroke="#D9D9D9" stroke-width="0.5" stroke-miterlimit="10"/>
<path d="M67.7799 34.3739C67.5995 33.9952 63.95 33.454 61.8494 33.1835C60.9689 33.0644 60.1307 33.5298 59.7488 34.3415C59.5791 34.6986 59.3775 35.1207 59.1759 35.5644C59.1865 35.5536 60.7779 33.5731 62.539 34.006C64.3107 34.4389 66.7614 34.3739 66.337 35.4886C65.9233 36.6033 63.3559 42.8044 63.3559 42.8044L63.515 43.0209C63.8121 43.075 64.0243 43.1075 64.0879 43.0966C64.4699 43.0317 68.0345 34.9042 67.7799 34.3739Z" fill="#F2C777"/>
<path d="M58.4227 40.7371C58.3909 40.7479 58.3484 40.7479 58.3166 40.7263C58.2423 40.6938 58.2105 40.6072 58.253 40.5315L61.075 34.4818C61.1068 34.4169 61.1704 34.3844 61.2341 34.4061L64.7245 35.0879C64.7987 35.0987 64.8518 35.1745 64.8412 35.261C64.8306 35.3368 64.7563 35.3909 64.6714 35.3801L61.2871 34.7199L58.5076 40.6722C58.497 40.6938 58.4651 40.7263 58.4227 40.7371Z" stroke="#D9D9D9" stroke-width="0.5" stroke-miterlimit="10"/>
<path d="M64.0031 24.4819C64.3956 23.6702 65.2337 23.2157 66.1037 23.3239C68.2043 23.6053 71.8538 24.1464 72.0341 24.5143C72.2888 25.0446 68.7241 33.1829 68.3422 33.237C67.9603 33.2912 61.4357 31.776 61.2978 30.986C61.2023 30.4233 63.0058 26.5706 64.0031 24.4819Z" stroke="#D9D9D9" stroke-width="0.5" stroke-miterlimit="10"/>
<path d="M72.0341 24.5253C71.8538 24.1465 68.2043 23.6054 66.1037 23.3349C65.2231 23.2158 64.385 23.6812 64.0031 24.4928C63.8333 24.85 63.6317 25.272 63.4302 25.7157C63.4408 25.7049 65.0321 23.7245 66.7933 24.1573C68.565 24.5902 71.0157 24.5253 70.5913 25.64C70.1775 26.7547 67.6101 32.9558 67.6101 32.9558L67.7693 33.1722C68.0663 33.2264 68.2785 33.2588 68.3422 33.248C68.7241 33.1831 72.2888 25.0556 72.0341 24.5253Z" fill="#F2C777"/>
<path d="M62.6769 30.8889C62.6451 30.8998 62.6027 30.8998 62.5709 30.8781C62.4966 30.8457 62.4648 30.7591 62.5072 30.6833L65.3292 24.6337C65.361 24.5688 65.4247 24.5363 65.4883 24.5579L68.9787 25.2397C69.053 25.2506 69.106 25.3263 69.0954 25.4129C69.0848 25.4887 69.0106 25.5428 68.9257 25.5319L65.5414 24.8718L62.7618 30.824C62.7512 30.8565 62.7194 30.8781 62.6769 30.8889Z" stroke="#D9D9D9" stroke-width="0.5" stroke-miterlimit="10"/>
<path d="M72.9996 26.582C73.3922 25.7703 74.2303 25.3158 75.1002 25.424C77.2008 25.7054 80.8503 26.2465 81.0307 26.6144C81.2853 27.1447 77.7207 35.283 77.3387 35.3371C76.9568 35.3913 70.4322 33.8761 70.2943 33.0861C70.1988 32.5342 71.9918 28.6815 72.9996 26.582Z" stroke="#D9D9D9" stroke-width="0.5" stroke-miterlimit="10"/>
<path d="M81.0306 26.6254C80.8503 26.2466 77.2008 25.7055 75.1002 25.435C74.2196 25.3159 73.3815 25.7813 72.9996 26.5929C72.8298 26.9501 72.6282 27.3721 72.4267 27.8158C72.4373 27.805 74.0286 25.8246 75.7897 26.2574C77.5615 26.6903 80.0122 26.6254 79.5878 27.7401C79.174 28.8548 76.6066 35.0559 76.6066 35.0559L76.7658 35.2723C77.0628 35.3265 77.275 35.3589 77.3387 35.3481C77.7206 35.294 81.2852 27.1557 81.0306 26.6254Z" fill="#F2C777"/>
<path d="M71.6734 32.9885C71.6416 32.9994 71.5992 32.9994 71.5673 32.9777C71.4931 32.9453 71.4613 32.8587 71.5037 32.7829L74.3257 26.7333C74.3575 26.6684 74.4212 26.6359 74.4848 26.6576L77.9752 27.3394C78.0495 27.3502 78.1025 27.4259 78.0919 27.5125C78.0813 27.5883 78.007 27.6424 77.9222 27.6316L74.5379 26.9714L71.7583 32.9236C71.7371 32.9561 71.7053 32.9777 71.6734 32.9885Z" stroke="#D9D9D9" stroke-width="0.5" stroke-miterlimit="10"/>
<path d="M68.7454 36.4301C69.1379 35.6185 69.976 35.1639 70.8459 35.2721C72.9465 35.5535 76.5961 36.0946 76.7764 36.4626C77.031 36.9929 73.4664 45.1312 73.0845 45.1853C72.7025 45.2394 66.178 43.7243 66.04 42.9343C65.9446 42.3823 67.7375 38.5188 68.7454 36.4301Z" stroke="#D9D9D9" stroke-width="0.5" stroke-miterlimit="10"/>
<path d="M76.7765 36.4735C76.5961 36.0948 72.9466 35.5537 70.846 35.2831C69.9654 35.1641 69.1273 35.6294 68.7454 36.4411C68.5757 36.7982 68.3741 37.2203 68.1725 37.664C68.1831 37.6532 69.7745 35.6727 71.5356 36.1056C73.3073 36.5385 75.758 36.4735 75.3336 37.5882C74.9199 38.7029 72.3525 44.904 72.3525 44.904L72.5116 45.1205C72.8087 45.1746 73.0208 45.2071 73.0845 45.1962C73.4664 45.1421 77.0311 37.0038 76.7765 36.4735Z" fill="#F2C777"/>
<path d="M67.4192 42.8367C67.3874 42.8475 67.345 42.8475 67.3131 42.8259C67.2389 42.7934 67.207 42.7068 67.2495 42.6311L70.0715 36.5815C70.1033 36.5165 70.167 36.4841 70.2306 36.5057L73.721 37.1875C73.7953 37.1983 73.8483 37.2741 73.8377 37.3607C73.8271 37.4364 73.7528 37.4905 73.668 37.4797L70.2837 36.8195L67.5041 42.7718C67.4829 42.8042 67.451 42.8259 67.4192 42.8367Z" stroke="#D9D9D9" stroke-width="0.5" stroke-miterlimit="10"/>
<path d="M46.0208 20.2729C46.4133 19.4612 47.2514 19.0067 48.1213 19.1149C50.2219 19.3963 53.8715 19.9374 54.0518 20.3054C54.3064 20.8357 50.7418 28.974 50.3599 29.0281C49.9779 29.0822 43.4534 27.5671 43.3154 26.777C43.22 26.2143 45.0235 22.3616 46.0208 20.2729Z" stroke="#D9D9D9" stroke-width="0.5" stroke-miterlimit="10"/>
<path d="M54.0518 20.3153C53.8714 19.9366 50.2219 19.3954 48.1213 19.1249C47.2407 19.0058 46.4026 19.4712 46.0207 20.2829C45.851 20.64 45.6494 21.0621 45.4478 21.5058C45.4584 21.495 47.0498 19.5145 48.8109 19.9474C50.5826 20.3803 53.0333 20.3153 52.6089 21.43C52.1952 22.5447 49.6278 28.7458 49.6278 28.7458L49.7869 28.9623C50.084 29.0164 50.2962 29.0489 50.3598 29.038C50.7417 28.9731 54.3064 20.8456 54.0518 20.3153Z" fill="#F2C777"/>
<path d="M44.6946 26.6795C44.6628 26.6903 44.6203 26.6903 44.5885 26.6686C44.5142 26.6362 44.4824 26.5496 44.5248 26.4738L47.3469 20.4242C47.3787 20.3593 47.4423 20.3268 47.506 20.3485L50.9964 21.0303C51.0706 21.0411 51.1237 21.1169 51.1131 21.2034C51.1025 21.2792 51.0282 21.3333 50.9433 21.3225L47.559 20.6623L44.7795 26.6145C44.7688 26.647 44.737 26.6686 44.6946 26.6795Z" stroke="#D9D9D9" stroke-width="0.5" stroke-miterlimit="10"/>
<path d="M45.6388 18.0973L82.6644 26.3222C82.6751 25.8677 82.5902 25.5755 82.3886 25.4997C77.4342 23.6707 49.0231 16.7878 46.286 17.6319C46.095 17.6861 45.8722 17.8592 45.6388 18.0973Z" fill="#F2C777"/>
<path d="M82.4416 25.543L81.8793 25.8785L73.477 46.6788L74.1878 47.0684C77.9222 41.0945 83.8738 26.517 82.4416 25.543Z" fill="#F2C777"/>
<path d="M45.6919 18.043C42.6152 21.084 36.2286 39.0272 36.2286 39.0272C36.4726 39.5142 36.7272 39.9579 36.9818 40.4125H37.003L46.2754 18.2486L45.6919 18.043Z" fill="#525252"/>
<path d="M32.6534 2.73967L33.831 42.9983C33.8628 44.0697 34.4781 45.0978 35.5178 45.5848C36.1756 45.8878 36.9606 45.996 37.7881 45.5307C38.605 45.0653 39.0188 44.1887 39.0082 43.323L38.117 2.36089C38.0852 1.11633 37.0349 0.066579 35.6663 0.00164577C35.6451 0.00164577 35.6239 0.00164577 35.5921 0.00164577C33.9477 -0.0524653 32.6109 1.23538 32.6534 2.73967Z" fill="#F2C777"/>
<path d="M37.9579 1.62499C37.629 0.726742 36.7485 0.0557645 35.6663 0.00165349C35.6451 0.00165349 35.6239 0.00165349 35.5921 0.00165349C34.2765 -0.0416354 33.1732 0.77003 32.8019 1.85225C33.1626 2.0687 36.3029 3.76778 37.9579 1.62499Z" fill="#F2C777"/>
<path d="M32.6534 2.74016L33.64 36.3756L34.3402 36.5487L33.4491 0.835449C32.9398 1.33327 32.6322 2.00425 32.6534 2.74016Z" fill="#F2C777"/>
<path d="M37.3107 2.23096V36.4724L35.3905 36.8079L35.1571 2.69631C35.1571 2.69631 36.6636 2.84782 37.3107 2.23096Z" fill="#F2C777"/>
<path d="M24.2783 44.1836C25.1963 38.2382 21.2158 32.6593 15.3876 31.7228C9.55934 30.7863 4.09036 34.8468 3.17228 40.7921C2.2542 46.7375 6.23468 52.3163 12.0629 53.2528C17.8912 54.1894 23.3602 50.1289 24.2783 44.1836Z" fill="#4A4A4A"/>
<path d="M18.5361 49.5193C22.3413 46.8097 23.2727 41.4664 20.6165 37.5847C17.9603 33.703 12.7223 32.7529 8.91709 35.4625C5.11189 38.1721 4.18044 43.5154 6.83666 47.397C9.49287 51.2787 14.7309 52.2289 18.5361 49.5193Z" fill="#A3A3A3"/>
<path d="M9.14361 50.0325C7.55225 51.3744 5.86541 52.5865 4.12552 53.7228C1.25046 55.6059 -3.53422 59.7508 4.17857 62.8243C14.4587 66.9259 17.3232 55.8332 26.6698 59.5343C36.0164 63.2355 31.5075 76.0707 39.8675 70.8219C48.2274 65.5731 45.8616 54.1774 55.5158 55.844C65.1701 57.5106 67.8117 56.2228 69.1697 53.7012C70.5276 51.1688 71.5461 50.3896 73.7104 52.7272C75.8746 55.0648 78.7391 59.7724 79.3119 54.8916C79.8848 50.0108 74.8243 48.6472 74.5909 45.1408C74.3575 41.6344 60.2475 37.5544 55.8553 39.5024C51.4738 41.4504 44.4187 33.6693 38.8808 34.8381C33.3535 36.0069 26.4894 33.2797 19.2434 40.6712C15.265 44.7079 11.6261 47.9329 9.14361 50.0325Z" fill="#615348"/>
<path d="M5.29258 63.2146C5.29258 63.2146 14.2572 66.7751 19.1904 62.8033C24.1131 58.8424 29.7146 63.4093 30.574 67.7923C31.4333 72.1645 33.7567 77.857 37.9579 75.3787C42.1591 72.9004 49.3308 67.7707 50.1795 61.2882C51.0282 54.8057 57.1603 56.4074 60.099 58.4528C63.0377 60.4982 71.9917 57.6736 72.4691 55.823C72.9465 53.9832 78.389 58.8748 79.2908 54.8706C79.2908 54.8706 76.8719 53.1283 73.4664 51.1261C70.2943 49.2647 69.8381 49.2972 67.7906 51.3751C65.743 53.4529 66.6023 55.9312 60.099 53.9832C53.5956 52.0352 46.2435 53.0525 43.5595 58.0091C40.8754 62.9656 38.8278 71.7208 34.3508 65.011C29.8632 58.3013 28.5795 52.7603 19.2859 55.9637C9.99239 59.1779 2.94798 62.6518 1.53697 55.8122C1.52636 55.823 -3.3432 57.8143 5.29258 63.2146Z" fill="#CBCBCB"/>
<path d="M36.6211 60.0978C36.6105 59.9787 36.6423 59.8489 36.706 59.7406L38.2443 57.2624C38.4141 56.9918 38.7642 56.9052 39.0294 57.0784C39.2946 57.2515 39.3795 57.6087 39.2097 57.8792L37.6714 60.3575C37.5017 60.6281 37.1516 60.7146 36.8863 60.5415C36.7378 60.4333 36.6423 60.2709 36.6211 60.0978Z" fill="#FFD77A"/>
<path d="M45.8086 45.1191C45.7343 45.0541 45.6813 44.9784 45.6388 44.881C45.5221 44.578 45.6707 44.2425 45.9677 44.1234L49.2353 42.8356C49.5323 42.7165 49.8612 42.868 49.9779 43.1711C50.0946 43.4741 49.9461 43.8096 49.649 43.9286L46.3815 45.2165C46.1799 45.2922 45.9677 45.2489 45.8086 45.1191Z" fill="#F06060"/>
<path d="M39.2097 49.9679C39.3476 49.8272 39.5598 49.7622 39.772 49.8164L43.2411 50.8228C43.5488 50.9094 43.7185 51.2341 43.6337 51.5479C43.5488 51.8618 43.2305 52.0349 42.9229 51.9483L39.4537 50.9419C39.146 50.8553 38.9763 50.5306 39.0612 50.2168C39.093 50.1302 39.146 50.0436 39.2097 49.9679Z" fill="white"/>
<path d="M59.1653 45.1301C59.0486 45.1626 58.9213 45.1626 58.8046 45.1085L56.1417 44.0262C55.8447 43.9072 55.7068 43.5717 55.8235 43.2687C55.9402 42.9657 56.269 42.825 56.5661 42.944L59.229 44.0262C59.526 44.1453 59.6639 44.4808 59.5472 44.7838C59.473 44.957 59.3351 45.076 59.1653 45.1301Z" fill="white"/>
<path d="M21.8745 46.169C21.9912 46.169 22.1185 46.2123 22.214 46.2989L24.4313 48.1603C24.6753 48.3659 24.7071 48.7338 24.5056 48.9828C24.304 49.2317 23.9433 49.275 23.6993 49.0693L21.482 47.2079C21.238 47.0023 21.2061 46.6343 21.4077 46.3854C21.5244 46.2339 21.7048 46.1582 21.8745 46.169Z" fill="white"/>
<path d="M28.0808 50.887C28.1763 50.887 28.2718 50.9195 28.3566 50.9736C28.6219 51.1468 28.7067 51.5039 28.5476 51.7745L26.7122 54.8263C26.5425 55.0969 26.1924 55.1835 25.9272 55.0211C25.6619 54.848 25.5771 54.4908 25.7362 54.2203L27.5716 51.1684C27.6883 50.9736 27.8792 50.8762 28.0808 50.887Z" fill="white"/>
<path d="M68.2997 43.2363C68.5013 43.2472 68.6922 43.3554 68.7877 43.561L70.4215 46.8401C70.57 47.1323 70.4533 47.4786 70.1669 47.6193C69.8804 47.7708 69.541 47.6518 69.403 47.3596L67.7692 44.0805C67.6207 43.7883 67.7374 43.4419 68.0239 43.3013C68.1087 43.258 68.2042 43.2363 68.2997 43.2363Z" fill="#F06060"/>
<path d="M35.4117 42.6201C35.4329 42.7392 35.4117 42.869 35.3586 42.9881L34.0325 45.5854C33.884 45.8668 33.5445 45.9858 33.258 45.8343C32.9716 45.6828 32.8655 45.3365 33.014 45.0443L34.3402 42.447C34.4887 42.1656 34.8282 42.0466 35.1146 42.1981C35.2738 42.2846 35.3799 42.447 35.4117 42.6201Z" fill="#FFD77A"/>
<path d="M28.5158 41.7323C28.537 41.8297 28.5264 41.9271 28.4946 42.0245C28.3885 42.3275 28.0596 42.4898 27.7625 42.3816L24.4525 41.1912C24.1555 41.0829 23.9963 40.7475 24.1024 40.4444C24.2085 40.1414 24.5374 39.9791 24.8344 40.0873L28.1445 41.2777C28.346 41.3535 28.4734 41.5267 28.5158 41.7323Z" fill="#F06060"/>
<path d="M42.4666 39.7514C42.4985 39.957 42.4242 40.1627 42.2651 40.3034L39.4643 42.6193C39.2203 42.8249 38.8596 42.7816 38.658 42.5327C38.4564 42.2838 38.4989 41.9159 38.7429 41.7102L41.5437 39.3943C41.7877 39.1887 42.1484 39.232 42.3499 39.4809C42.4136 39.5674 42.4454 39.654 42.4666 39.7514Z" fill="white"/>
<path d="M7.35067 53.5496C7.46737 53.5063 7.59468 53.4955 7.71138 53.5388L10.4591 54.3829C10.7668 54.4803 10.9365 54.805 10.8411 55.108C10.7456 55.4219 10.4379 55.595 10.1302 55.4976L7.3825 54.6535C7.07484 54.5561 6.90509 54.2314 7.00057 53.9284C7.05362 53.7444 7.18093 53.6145 7.35067 53.5496Z" fill="white"/>
<path d="M39.1779 38.4427C39.0612 38.4535 38.9339 38.4211 38.8278 38.3453L36.4619 36.6895C36.1967 36.5056 36.1331 36.1484 36.3134 35.8779C36.4938 35.6073 36.8439 35.5424 37.1091 35.7264L39.4749 37.3822C39.7401 37.5661 39.8038 37.9233 39.6234 38.1938C39.5174 38.3562 39.3476 38.4427 39.1779 38.4427Z" fill="white"/>
<path d="M30.8498 40.8229C30.7543 40.8229 30.6588 40.8121 30.5634 40.758C30.2769 40.6173 30.1602 40.2601 30.3087 39.9788L31.8683 36.7754C32.0062 36.4832 32.3563 36.3641 32.6321 36.5157C32.9186 36.6563 33.0353 37.0135 32.8867 37.2949L31.3272 40.4982C31.2317 40.693 31.0408 40.8121 30.8498 40.8229Z" fill="white"/>
<path d="M37.2152 42.8901C37.0137 42.9009 36.8121 42.8035 36.706 42.6196L34.7964 39.5028C34.6266 39.2322 34.7115 38.8751 34.9767 38.7019C35.242 38.5288 35.5921 38.6153 35.7618 38.8859L37.6714 42.0027C37.8412 42.2732 37.7563 42.6304 37.4911 42.8035C37.4062 42.8576 37.3107 42.8901 37.2152 42.8901Z" fill="#F06060"/>
</svg>
