<svg width="124" height="205" viewBox="0 0 124 205" fill="none" xmlns="http://www.w3.org/2000/svg">
<path d="M8.4931 27.8101H118.214L108.869 186.334C108.696 189.311 107.075 192.036 104.511 193.564C93.3248 200.244 60.8836 215.635 28.3795 193.423C26.1769 191.91 24.7609 189.5 24.4934 186.838L8.4931 27.8101Z" fill="#BFA288"/>
<path d="M117.805 34.7414L118.214 27.8101H8.4931L9.18535 34.7414C9.20108 34.7414 72.7147 41.3263 117.805 34.7414Z" fill="#F3E2C2"/>
<path d="M1.72832 30.2048C15.3373 32.3157 67.7435 39.2471 121.817 30.2205C123.107 30 123.642 28.4404 122.777 27.448C121.377 25.8097 119.678 23.2104 118.671 19.3824C118.325 18.0434 117.428 16.8934 116.201 16.216L112 13.916V11.301C112 9.30037 110.663 7.56752 108.743 7.06342C97.0853 4.00732 55.9753 -4.97197 13.701 7.18945C12.1277 7.64629 11.0422 9.11133 11.0422 10.7497L11.0264 13.5065L7.51801 16.4995C6.58978 17.2872 6.13352 18.4844 6.18072 19.6974C6.29085 21.8556 5.693 25.5103 1.31926 28.2041C0.453952 28.724 0.721411 30.0472 1.72832 30.2048Z" fill="#F3E2C2"/>
<path d="M18.9398 131.655C77.7493 150.842 112.094 131.655 112.094 131.655L115.131 80.1265C51.6642 94.9344 13.7479 80.1265 13.7479 80.1265L18.9398 131.655Z" fill="#F3E2C2"/>
<path d="M112 13.9316V11.3009C112 11.1591 111.984 11.0331 111.968 10.8913C60.7263 14.2625 11.0261 10.7495 11.0261 10.7495V13.5063C72.6833 20.3274 112 13.9316 112 13.9316Z" fill="#F3E2C2"/>
<path d="M1.31891 28.2041C0.453604 28.7397 0.736795 30.0629 1.72797 30.2047C15.3369 32.3156 67.7431 39.247 121.817 30.2205C123.107 29.9999 123.642 28.4404 122.777 27.4479C121.377 25.8096 119.677 23.2103 118.67 19.3823C67.4442 27.6055 6.18037 19.6816 6.18037 19.6816C6.2905 21.8556 5.69265 25.4945 1.31891 28.2041Z" fill="#F3E2C2"/>
<path d="M104.936 189.485C100.987 192.635 73.5486 201.095 59.9711 200.528C46.3936 199.961 28.3008 189.768 27.168 187.5C26.0353 185.231 11.6082 31.5596 11.6082 31.5596L8.77631 30.5356L24.4935 186.822C24.7609 189.485 26.1769 191.895 28.3795 193.407C60.8836 215.619 93.3248 200.213 104.511 193.549C105.943 192.698 107.075 191.454 107.831 190.005C107.233 188.902 106.257 188.429 104.936 189.485Z" fill="#F3E2C2"/>
<path d="M101.002 46.7773C101.002 44.3041 100.751 42.0199 101.994 41.9254C104.794 41.7206 109.184 39.6727 110.804 41.9569C113.431 45.6589 107.642 182.112 106.934 182.963C106.226 183.814 100.578 187.784 99.4449 186.366C98.4223 185.106 100.987 70.9269 101.002 46.7773Z" fill="#363636"/>
<path d="M42.7908 47.832C42.7908 45.3588 43.2785 43.0746 40.8084 42.9801C35.2075 42.7753 26.4286 40.7274 23.1719 43.0116C17.9014 46.7136 29.4965 183.167 30.9125 184.018C32.3284 184.868 43.6404 188.838 45.9059 187.421C47.9197 186.16 42.8065 71.9973 42.7908 47.832Z" fill="#363636"/>
<path d="M48.9109 103.331L55.0625 115.114C55.2827 115.54 55.5502 115.933 55.8491 116.312C60.8679 123.054 53.8353 122.644 50.8933 121.211C46.5352 119.1 42.4762 114.531 43.3572 104.575C43.9551 97.7543 47.3848 98.6365 48.9109 103.331Z" fill="#4A4A4A"/>
<path d="M49.729 103.284L55.7547 114.61C58.8541 122.912 61.7332 116.642 62.1895 113.303C62.8345 108.593 61.6388 102.701 53.5364 99.1249C47.2275 96.3209 48.4232 100.811 49.729 103.284Z" fill="#4A4A4A"/>
<path d="M68.6556 122.061L63.6998 126.992C63.5267 127.165 63.3694 127.37 63.2121 127.575C60.6161 131.135 59.7194 127.543 59.9868 125.842C60.3644 123.321 62.0321 120.58 67.161 119.462C70.6852 118.706 70.7796 120.565 68.6556 122.061Z" fill="#4A4A4A"/>
<path d="M68.813 122.471L64.0774 127.259C60.3959 130.111 63.983 130.583 65.7294 130.284C68.1837 129.874 70.9527 128.362 71.4876 123.731C71.9124 120.123 69.8514 121.431 68.813 122.471Z" fill="#4A4A4A"/>
<path d="M74.3195 101.095L74.1307 111.681C74.1307 112.059 74.1622 112.437 74.2251 112.815C75.1691 119.431 70.402 116.47 68.8917 114.359C66.6576 111.224 65.5563 106.482 69.9615 99.8502C72.9822 95.3133 75.0432 97.2351 74.3195 101.095Z" fill="#4A4A4A"/>
<path d="M74.9173 101.377L74.8229 111.585C73.8318 118.564 78.2212 115.287 79.826 113.129C82.0758 110.089 83.476 105.505 79.1809 99.9123C75.8141 95.5487 74.9331 99.1562 74.9173 101.377Z" fill="#4A4A4A"/>
<path d="M115.131 31.2599L105.581 192.808C107.516 191.217 108.727 188.886 108.869 186.334L118.041 30.8188L115.131 31.2599Z" fill="#F3E2C2"/>
</svg>
